<svg xmlns="http://www.w3.org/2000/svg" width="1500" height="700"><title>Your Diagram Title</title><rect width="1500" height="700" fill="#fff"/><g transform="translate(152.01251071453095,18)"><g id="sankey_flows"><path id="flow0" fill="none" stroke="#1f77b4" stroke-width="22.018" d="M9 30.15728C273.33391 30.15728 273.33391 183.25639 537.66782 183.25639" opacity=".45"><title>OmniSharp → MS.AspNetCore.Razor.LanguageServer.Common: 1</title></path><path id="flow1" fill="none" stroke="#2ca02c" stroke-width="22.018" d="M9 75.78131C462.69934 75.78131 462.69934 186.57229 916.39869 186.57229" opacity=".45"><title>RoslynWorkspace → ProjectEngineHost: 1</title></path><path id="flow2" fill="none" stroke="#1f77b4" stroke-width="22.018" d="M228.84378 147.39779C383.2558 147.39779 383.2558 227.29194 537.66782 227.29194" opacity=".45"><title>MS.AspNetCore.Razor.LanguageServer → MS.AspNetCore.Razor.LanguageServer.Common: 1</title></path><path id="flow3" fill="none" stroke="#9467bd" stroke-width="22.018" d="M546.66782 183.25639C859.07661 183.25639 859.07661 262.98161 1171.4854 262.98161" opacity=".45"><title>MS.AspNetCore.Razor.LanguageServer.Common → Compiler: 1</title></path><path id="flow4" fill="none" stroke="#8c564b" stroke-width="22.018" d="M546.66782 205.27416C671.78514 205.27416 671.78514 297.48757 796.90247 297.48757" opacity=".45"><title>MS.AspNetCore.Razor.LanguageServer.Common → Workspaces: 1</title></path><path id="flow5" fill="none" stroke="#9467bd" stroke-width="22.018" d="M925.39869 186.57229C1048.44204 186.57229 1048.44204 240.96383 1171.4854 240.96383" opacity=".45"><title>ProjectEngineHost → Compiler: 1</title></path><path id="flow6" fill="none" stroke="#9467bd" stroke-width="22.018" d="M805.90247 319.50535C988.69393 319.50535 988.69393 284.99938 1171.4854 284.99938" opacity=".45"><title>Workspaces → Compiler: 1</title></path><path id="flow7" fill="none" stroke="#2ca02c" stroke-width="22.018" d="M805.90247 297.48757C861.15058 297.48757 861.15058 208.59007 916.39869 208.59007" opacity=".45"><title>Workspaces → ProjectEngineHost: 1</title></path><path id="flow8" fill="none" stroke="#8c564b" stroke-width="22.018" d="M180.68463 421.6689C488.79355 421.6689 488.79355 341.52312 796.90247 341.52312" opacity=".45"><title>OOP Tag Helper Discovery → Workspaces: 1</title></path><path id="flow9" fill="none" stroke="#8c564b" stroke-width="22.018" d="M738.90765 421.00378C767.90506 421.00378 767.90506 363.5409 796.90247 363.5409" opacity=".45"><title>MS.VS.Editor.Razor → Workspaces: 1</title></path><path id="flow10" fill="none" stroke="#d62728" stroke-width="22.018" d="M348.23928 249.34848C284.04153 249.34848 284.04153 147.39779 219.84378 147.39779" opacity=".45"><title>MS.VS.LanguageServerClient.Razor → MS.AspNetCore.Razor.LanguageServer: 1</title></path><path id="flow11" fill="none" stroke="#1f77b4" stroke-width="22.018" d="M348.23928 227.33071C442.95355 227.33071 442.95355 205.27416 537.66782 205.27416" opacity=".45"><title>MS.VS.LanguageServerClient.Razor → MS.AspNetCore.Razor.LanguageServer.Common: 1</title></path><path id="flow12" fill="none" stroke="#8c564b" stroke-width="22.018" d="M348.23928 271.36626C572.57087 271.36626 572.57087 319.50535 796.90247 319.50535" opacity=".45"><title>MS.VS.LanguageServerClient.Razor → Workspaces: 1</title></path><path id="flow13" fill="none" stroke="#7f7f7f" stroke-width="22.018" d="M348.23928 315.40182C539.07346 315.40182 539.07346 421.00378 729.90765 421.00378" opacity=".45"><title>MS.VS.LanguageServerClient.Razor → MS.VS.Editor.Razor: 1</title></path><path id="flow14" fill="none" stroke="#17becf" stroke-width="22.018" d="M348.23928 293.38404C442.46941 293.38404 442.46941 318.62729 536.69954 318.62729" opacity=".45"><title>MS.VS.LanguageServerClient.Razor → ContainedLanguage: 1</title></path><path id="flow15" fill="none" stroke="#7f7f7f" stroke-width="22.018" d="M185.32422 385.08323C457.61593 385.08323 457.61593 465.03933 729.90765 465.03933" opacity=".45"><title>LanguageServices.VS → MS.VS.Editor.Razor: 1</title></path><path id="flow16" fill="none" stroke="#7f7f7f" stroke-width="22.018" d="M178.30437 611.10301C454.10601 611.10301 454.10601 509.07489 729.90765 509.07489" opacity=".45"><title>LiveShare → MS.VS.Editor.Razor: 1</title></path><path id="flow17" fill="none" stroke="#7f7f7f" stroke-width="22.018" d="M181.04601 340.41297C455.47683 340.41297 455.47683 443.02156 729.90765 443.02156" opacity=".45"><title>Mac.LanguageServices → MS.VS.Editor.Razor: 1</title></path><path id="flow18" fill="none" stroke="#9467bd" stroke-width="22.018" d="M9 298.80355C590.2427 298.80355 590.2427 307.01716 1171.4854 307.01716" opacity=".45"><title>VS Mac → Compiler: 1</title></path><path id="flow19" fill="none" stroke="#bcbd22" stroke-width="22.018" d="M9 254.768C174.11964 254.768 174.11964 227.33071 339.23928 227.33071" opacity=".45"><title>VS Mac → MS.VS.LanguageServerClient.Razor: 1</title></path><path id="flow20" fill="none" stroke="#2ca02c" stroke-width="22.018" d="M9 276.78577C90.52301 276.78577 90.52301 340.41297 172.04601 340.41297" opacity=".45"><title>VS Mac → Mac.LanguageServices: 1</title></path><path id="flow21" fill="none" stroke="#d62728" stroke-width="22.018" d="M9 413.99214C114.42189 413.99214 114.42189 169.41556 219.84378 169.41556" opacity=".45"><title>VS → MS.AspNetCore.Razor.LanguageServer: 1</title></path><path id="flow22" fill="none" stroke="#1f77b4" stroke-width="22.018" d="M9 524.08103C273.33391 524.08103 273.33391 249.30972 537.66782 249.30972" opacity=".45"><title>VS → MS.AspNetCore.Razor.LanguageServer.Common: 1</title></path><path id="flow23" fill="none" stroke="#8c564b" stroke-width="22.018" d="M9 546.09881C402.95123 546.09881 402.95123 385.55868 796.90247 385.55868" opacity=".45"><title>VS → Workspaces: 1</title></path><path id="flow24" fill="none" stroke="#e377c2" stroke-width="22.018" d="M9 480.04548C90.34231 480.04548 90.34231 421.6689 171.68463 421.6689" opacity=".45"><title>VS → OOP Tag Helper Discovery: 1</title></path><path id="flow25" fill="none" stroke="#7f7f7f" stroke-width="22.018" d="M9 502.06326C369.45382 502.06326 369.45382 487.05711 729.90765 487.05711" opacity=".45"><title>VS → MS.VS.Editor.Razor: 1</title></path><path id="flow26" fill="none" stroke="#17becf" stroke-width="22.018" d="M9 590.13437C272.84977 590.13437 272.84977 340.64506 536.69954 340.64506" opacity=".45"><title>VS → ContainedLanguage: 1</title></path><path id="flow27" fill="none" stroke="#bcbd22" stroke-width="22.018" d="M9 436.00992C174.11964 436.00992 174.11964 249.34848 339.23928 249.34848" opacity=".45"><title>VS → MS.VS.LanguageServerClient.Razor: 1</title></path><path id="flow28" fill="none" stroke="#1f77b4" stroke-width="22.018" d="M9 458.0277C92.66211 458.0277 92.66211 385.08323 176.32422 385.08323" opacity=".45"><title>VS → LanguageServices.VS: 1</title></path><path id="flow29" fill="none" stroke="#ff7f0e" stroke-width="22.018" d="M9 568.11659C89.15219 568.11659 89.15219 611.10301 169.30437 611.10301" opacity=".45"><title>VS → LiveShare: 1</title></path><path id="flow30" fill="none" stroke="#d62728" stroke-width="22.018" d="M9 461.08778C114.42189 461.08778 114.42189 191.43334 219.84378 191.43334" opacity=".45"><title>rzls → MS.AspNetCore.Razor.LanguageServer: 1</title></path></g><g id="sankey_nodes"><g class="node"><rect id="r0" width="9" height="22.018" x="0" y="19.148" fill="#17becf" fill-opacity="1" class="for_r0"><title>OmniSharp: 1</title></rect></g><g class="node"><rect id="r1" width="9" height="88.071" x="585.743" y="151.759" fill="#1f77b4" fill-opacity="1" class="for_r1" transform="translate(-48.07488,20.48845)"><title>MS.AspNetCore.Razor.LanguageServer.Common: 4</title></rect></g><g class="node"><rect id="r2" width="9" height="22.018" x="0" y="58.538" fill="#ff7f0e" fill-opacity="1" class="for_r2" transform="translate(0,6.23487)"><title>RoslynWorkspace: 1</title></rect></g><g class="node"><rect id="r3" width="9" height="44.036" x="976.238" y="179.441" fill="#2ca02c" fill-opacity="1" class="for_r3" transform="translate(-59.83915,-3.87724)"><title>ProjectEngineHost: 2</title></rect></g><g class="node"><rect id="r4" width="9" height="66.053" x="390.495" y="138.251" fill="#d62728" fill-opacity="1" class="for_r4" transform="translate(-170.65135,-1.86194)"><title>MS.AspNetCore.Razor.LanguageServer: 3</title></rect></g><g class="node"><rect id="r5" width="9" height="88.071" x="1171.485" y="230.841" fill="#9467bd" fill-opacity="1" class="for_r5" transform="translate(0,-0.88616)"><title>Compiler: 4</title></rect></g><g class="node"><rect id="r6" width="9" height="110.089" x="780.99" y="250.482" fill="#8c564b" fill-opacity="1" class="for_r6" transform="translate(15.9122,35.99644)"><title>Workspaces: 5</title></rect></g><g class="node"><rect id="r7" width="9" height="22.018" x="195.248" y="305.721" fill="#e377c2" fill-opacity="1" class="for_r7" transform="translate(-23.56294,104.93948)"><title>OOP Tag Helper Discovery: 1</title></rect></g><g class="node"><rect id="r8" width="9" height="110.089" x="390.495" y="339.843" fill="#7f7f7f" fill-opacity="1" class="for_r8" transform="translate(339.41251,70.15185)"><title>MS.VS.Editor.Razor: 5</title></rect></g><g class="node"><rect id="r9" width="9" height="110.089" x="195.248" y="99.482" fill="#bcbd22" fill-opacity="1" class="for_r9" transform="translate(143.99171,116.83989)"><title>MS.VS.LanguageServerClient.Razor: 5</title></rect></g><g class="node"><rect id="r10" width="9" height="44.036" x="1171.485" y="436.583" fill="#17becf" fill-opacity="1" class="for_r10" transform="translate(-634.78586,-128.96426)"><title>ContainedLanguage: 2</title></rect></g><g class="node"><rect id="r11" width="9" height="22.018" x="195.248" y="384.499" fill="#1f77b4" fill-opacity="1" class="for_r11" transform="translate(-18.92335,-10.42452)"><title>LanguageServices.VS: 1</title></rect></g><g class="node"><rect id="r12" width="9" height="22.018" x="195.248" y="463.277" fill="#ff7f0e" fill-opacity="1" class="for_r12" transform="translate(-25.9432,136.81695)"><title>LiveShare: 1</title></rect></g><g class="node"><rect id="r13" width="9" height="22.018" x="195.248" y="266.331" fill="#2ca02c" fill-opacity="1" class="for_r13" transform="translate(-23.20155,63.07271)"><title>Mac.LanguageServices: 1</title></rect></g><g class="node"><rect id="r14" width="9" height="66.053" x="0" y="228.868" fill="#d62728" fill-opacity="1" class="for_r14" transform="translate(0,14.89158)"><title>VS Mac: 3</title></rect></g><g class="node"><rect id="r15" width="9" height="198.16" x="0" y="312.292" fill="#d62728" fill-opacity="1" class="for_r15" transform="translate(0,90.69101)"><title>VS: 9</title></rect></g><g class="node"><rect id="r16" width="9" height="22.018" x="0" y="527.824" fill="#9467bd" fill-opacity="1" class="for_r16" transform="translate(0,-77.74474)"><title>rzls: 1</title></rect></g></g><g id="sankey_labels" fill="#000" font-family="sans-serif" font-size="16" font-weight="400"><text x="597.987" y="677" fill="#7F7F7F" font-size="11" font-weight="400" text-anchor="middle">Made with SankeyMATIC</text><rect id="label0_bg" width="90.66" height="23.6" x="-92.294" y="17.911" fill="#fff" fill-opacity=".55" stroke="none" stroke-opacity="0" stroke-width="0" class="for_r0" rx="4"/><text id="label0" x="-6.3" y="30.157" class="for_r0" dy="5.22" text-anchor="end">OmniSharp</text><rect id="label1_bg" width="362.796" height="23.6" x="596.376" y="183.548" fill="#fff" fill-opacity=".55" stroke="none" stroke-opacity="0" stroke-width="0" class="for_r1" rx="4" transform="translate(-48.07488,20.48845)"/><text id="label1" x="601.043" y="195.795" class="for_r1" dy="5.22" text-anchor="start" transform="translate(-48.07488,20.48845)">MS.AspNetCore.Razor.LanguageServer.Common</text><rect id="label2_bg" width="138.379" height="23.6" x="-140.012" y="57.3" fill="#fff" fill-opacity=".55" stroke="none" stroke-opacity="0" stroke-width="0" class="for_r2" rx="4" transform="translate(0,6.23487)"/><text id="label2" x="-6.3" y="69.546" class="for_r2" dy="5.22" text-anchor="end" transform="translate(0,6.23487)">RoslynWorkspace</text><rect id="label3_bg" width="142.47" height="23.6" x="986.871" y="189.212" fill="#fff" fill-opacity=".55" stroke="none" stroke-opacity="0" stroke-width="0" class="for_r3" rx="4" transform="translate(-59.83915,-3.87724)"/><text id="label3" x="991.538" y="201.458" class="for_r3" dy="5.22" text-anchor="start" transform="translate(-59.83915,-3.87724)">ProjectEngineHost</text><rect id="label4_bg" width="294.999" height="23.6" x="401.128" y="159.031" fill="#fff" fill-opacity=".55" stroke="none" stroke-opacity="0" stroke-width="0" class="for_r4" rx="4" transform="translate(-170.65135,-1.86194)"/><text id="label4" x="405.795" y="171.278" class="for_r4" dy="5.22" text-anchor="start" transform="translate(-170.65135,-1.86194)">MS.AspNetCore.Razor.LanguageServer</text><rect id="label5_bg" width="74.421" height="23.6" x="1182.119" y="262.63" fill="#fff" fill-opacity=".55" stroke="none" stroke-opacity="0" stroke-width="0" class="for_r5" rx="4" transform="translate(0,-0.88616)"/><text id="label5" x="1186.785" y="274.877" class="for_r5" dy="5.22" text-anchor="start" transform="translate(0,-0.88616)">Compiler</text><rect id="label6_bg" width="97.473" height="23.6" x="791.624" y="293.28" fill="#fff" fill-opacity=".55" stroke="none" stroke-opacity="0" stroke-width="0" class="for_r6" rx="4" transform="translate(15.9122,35.99644)"/><text id="label6" x="796.29" y="305.527" class="for_r6" dy="5.22" text-anchor="start" transform="translate(15.9122,35.99644)">Workspaces</text><rect id="label7_bg" width="201.884" height="23.6" x="205.881" y="304.483" fill="#fff" fill-opacity=".55" stroke="none" stroke-opacity="0" stroke-width="0" class="for_r7" rx="4" transform="translate(-23.56294,104.93948)"/><text id="label7" x="210.548" y="316.729" class="for_r7" dy="5.22" text-anchor="start" transform="translate(-23.56294,104.93948)">OOP Tag Helper Discovery</text><rect id="label8_bg" width="152.679" height="23.6" x="401.128" y="382.641" fill="#fff" fill-opacity=".55" stroke="none" stroke-opacity="0" stroke-width="0" class="for_r8" rx="4" transform="translate(339.41251,70.15185)"/><text id="label8" x="405.795" y="394.887" class="for_r8" dy="5.22" text-anchor="start" transform="translate(339.41251,70.15185)">MS.VS.Editor.Razor</text><rect id="label9_bg" width="270.983" height="23.6" x="205.881" y="142.28" fill="#fff" fill-opacity=".55" stroke="none" stroke-opacity="0" stroke-width="0" class="for_r9" rx="4" transform="translate(143.99171,116.83989)"/><text id="label9" x="210.548" y="154.526" class="for_r9" dy="5.22" text-anchor="start" transform="translate(143.99171,116.83989)">MS.VS.LanguageServerClient.Razor</text><rect id="label10_bg" width="153.869" height="23.6" x="1182.119" y="446.354" fill="#fff" fill-opacity=".55" stroke="none" stroke-opacity="0" stroke-width="0" class="for_r10" rx="4" transform="translate(-634.78586,-128.96426)"/><text id="label10" x="1186.785" y="458.6" class="for_r10" dy="5.22" text-anchor="start" transform="translate(-634.78586,-128.96426)">ContainedLanguage</text><rect id="label11_bg" width="168.067" height="23.6" x="205.881" y="383.261" fill="#fff" fill-opacity=".55" stroke="none" stroke-opacity="0" stroke-width="0" class="for_r11" rx="4" transform="translate(-18.92335,-10.42452)"/><text id="label11" x="210.548" y="395.508" class="for_r11" dy="5.22" text-anchor="start" transform="translate(-18.92335,-10.42452)">LanguageServices.VS</text><rect id="label12_bg" width="81.785" height="23.6" x="205.881" y="462.039" fill="#fff" fill-opacity=".55" stroke="none" stroke-opacity="0" stroke-width="0" class="for_r12" rx="4" transform="translate(-25.9432,136.81695)"/><text id="label12" x="210.548" y="474.286" class="for_r12" dy="5.22" text-anchor="start" transform="translate(-25.9432,136.81695)">LiveShare</text><rect id="label13_bg" width="176.952" height="23.6" x="205.881" y="265.094" fill="#fff" fill-opacity=".55" stroke="none" stroke-opacity="0" stroke-width="0" class="for_r13" rx="4" transform="translate(-23.20155,63.07271)"/><text id="label13" x="210.548" y="277.34" class="for_r13" dy="5.22" text-anchor="start" transform="translate(-23.20155,63.07271)">Mac.LanguageServices</text><rect id="label14_bg" width="67.082" height="23.6" x="-68.054" y="249.648" fill="#fff" fill-opacity=".55" stroke="none" stroke-opacity="0" stroke-width="0" class="for_r14" rx="4" transform="translate(0,14.89158)"/><text id="label14" x="-6.3" y="261.894" class="for_r14" dy="5.22" text-anchor="end" transform="translate(0,14.89158)">VS Mac</text><rect id="label15_bg" width="31.744" height="23.6" x="-33.377" y="399.126" fill="#fff" fill-opacity=".55" stroke="none" stroke-opacity="0" stroke-width="0" class="for_r15" rx="4" transform="translate(0,90.69101)"/><text id="label15" x="-6.3" y="411.372" class="for_r15" dy="5.22" text-anchor="end" transform="translate(0,90.69101)">VS</text><rect id="label16_bg" width="34.619" height="23.6" x="-36.252" y="526.586" fill="#fff" fill-opacity=".55" stroke="none" stroke-opacity="0" stroke-width="0" class="for_r16" rx="4" transform="translate(0,-77.74474)"/><text id="label16" x="-6.3" y="538.833" class="for_r16" dy="5.22" text-anchor="end" transform="translate(0,-77.74474)">rzls</text></g></g></svg>